<svg width="103" height="44" viewBox="0 0 103 44" fill="none" xmlns="http://www.w3.org/2000/svg">
<rect x="1.5" y="10.5" width="89.5391" height="32" stroke="white" stroke-width="3"/>
<path d="M23.875 35.22C22.6883 35.22 21.755 34.9867 21.075 34.52C20.4083 34.0533 19.9416 33.42 19.675 32.62C19.4083 31.8067 19.275 30.8733 19.275 29.82V24.04C19.275 22.9333 19.4083 21.9733 19.675 21.16C19.9416 20.3467 20.4083 19.72 21.075 19.28C21.755 18.84 22.6883 18.62 23.875 18.62C24.995 18.62 25.8683 18.8133 26.495 19.2C27.135 19.5733 27.5883 20.1133 27.855 20.82C28.1216 21.5267 28.255 22.3467 28.255 23.28V24.64H25.415V23.24C25.415 22.7867 25.3883 22.3733 25.335 22C25.295 21.6267 25.1683 21.3333 24.955 21.12C24.755 20.8933 24.4016 20.78 23.895 20.78C23.3883 20.78 23.015 20.9 22.775 21.14C22.5483 21.3667 22.4016 21.68 22.335 22.08C22.2683 22.4667 22.235 22.9067 22.235 23.4V30.44C22.235 31.0267 22.2816 31.5133 22.375 31.9C22.4683 32.2733 22.635 32.56 22.875 32.76C23.1283 32.9467 23.4683 33.04 23.895 33.04C24.3883 33.04 24.735 32.9267 24.935 32.7C25.1483 32.46 25.2816 32.1467 25.335 31.76C25.3883 31.3733 25.415 30.94 25.415 30.46V29H28.255V30.3C28.255 31.26 28.1283 32.1133 27.875 32.86C27.6216 33.5933 27.175 34.1733 26.535 34.6C25.9083 35.0133 25.0216 35.22 23.875 35.22ZM32.3157 35V18.8H36.1957C37.2891 18.8 38.2091 18.9333 38.9557 19.2C39.7157 19.4533 40.2891 19.8933 40.6757 20.52C41.0757 21.1467 41.2757 22 41.2757 23.08C41.2757 23.7333 41.2157 24.32 41.0957 24.84C40.9757 25.36 40.7691 25.8067 40.4757 26.18C40.1957 26.54 39.8024 26.82 39.2957 27.02L41.5557 35H38.5957L36.6357 27.58H35.2757V35H32.3157ZM35.2757 25.72H36.1957C36.7691 25.72 37.2224 25.64 37.5557 25.48C37.9024 25.3067 38.1491 25.04 38.2957 24.68C38.4424 24.3067 38.5157 23.8333 38.5157 23.26C38.5157 22.4467 38.3624 21.84 38.0557 21.44C37.7624 21.0267 37.1957 20.82 36.3557 20.82H35.2757V25.72ZM45.6067 35V18.8H48.5267V35H45.6067ZM57.1145 35.22C56.1412 35.22 55.3278 35.0333 54.6745 34.66C54.0212 34.2733 53.5278 33.7133 53.1945 32.98C52.8612 32.2467 52.6745 31.3467 52.6345 30.28L55.1745 29.78C55.2012 30.4067 55.2745 30.96 55.3945 31.44C55.5278 31.92 55.7212 32.2933 55.9745 32.56C56.2412 32.8133 56.5878 32.94 57.0145 32.94C57.4945 32.94 57.8345 32.8 58.0345 32.52C58.2345 32.2267 58.3345 31.86 58.3345 31.42C58.3345 30.7133 58.1745 30.1333 57.8545 29.68C57.5345 29.2267 57.1078 28.7733 56.5745 28.32L54.5345 26.52C53.9612 26.0267 53.5012 25.48 53.1545 24.88C52.8212 24.2667 52.6545 23.5133 52.6545 22.62C52.6545 21.34 53.0278 20.3533 53.7745 19.66C54.5212 18.9667 55.5412 18.62 56.8345 18.62C57.5945 18.62 58.2278 18.74 58.7345 18.98C59.2412 19.2067 59.6412 19.5267 59.9345 19.94C60.2412 20.3533 60.4678 20.8267 60.6145 21.36C60.7612 21.88 60.8545 22.4333 60.8945 23.02L58.3745 23.46C58.3478 22.9533 58.2878 22.5 58.1945 22.1C58.1145 21.7 57.9612 21.3867 57.7345 21.16C57.5212 20.9333 57.2012 20.82 56.7745 20.82C56.3345 20.82 55.9945 20.9667 55.7545 21.26C55.5278 21.54 55.4145 21.8933 55.4145 22.32C55.4145 22.8667 55.5278 23.32 55.7545 23.68C55.9812 24.0267 56.3078 24.3867 56.7345 24.76L58.7545 26.54C59.4212 27.1 59.9878 27.76 60.4545 28.52C60.9345 29.2667 61.1745 30.1733 61.1745 31.24C61.1745 32.0133 61.0012 32.7 60.6545 33.3C60.3212 33.9 59.8478 34.3733 59.2345 34.72C58.6345 35.0533 57.9278 35.22 57.1145 35.22ZM64.9173 35V18.8H69.6773C70.6506 18.8 71.4373 18.98 72.0373 19.34C72.6506 19.7 73.0973 20.2267 73.3773 20.92C73.6706 21.6 73.8173 22.4267 73.8173 23.4C73.8173 24.4533 73.6373 25.3067 73.2773 25.96C72.9173 26.6 72.4106 27.0667 71.7573 27.36C71.1173 27.6533 70.3573 27.8 69.4773 27.8H67.8773V35H64.9173ZM67.8773 25.72H68.9973C69.5306 25.72 69.944 25.6467 70.2373 25.5C70.544 25.34 70.7506 25.0933 70.8573 24.76C70.9773 24.4133 71.0373 23.9533 71.0373 23.38C71.0373 22.7933 70.9906 22.32 70.8973 21.96C70.8173 21.5867 70.6306 21.3133 70.3373 21.14C70.0573 20.9667 69.6106 20.88 68.9973 20.88H67.8773V25.72Z" fill="white"/>
<path d="M97.4383 38V33.5H100.704V1.5H11.4314V4.5H7.0766" stroke="white" stroke-width="3"/>
</svg>
